<svg width="75" height="75" viewBox="0 0 75 75" fill="none" xmlns="http://www.w3.org/2000/svg">
<path d="M59.375 34.375H15.625C12.1732 34.375 9.375 37.1732 9.375 40.625V62.5C9.375 65.9518 12.1732 68.75 15.625 68.75H59.375C62.8268 68.75 65.625 65.9518 65.625 62.5V40.625C65.625 37.1732 62.8268 34.375 59.375 34.375Z" fill="#8B5CF6" stroke="white" stroke-width="4" stroke-linecap="round" stroke-linejoin="round"/>
<path d="M21.875 34.375V21.875C21.875 17.731 23.5212 13.7567 26.4515 10.8265C29.3817 7.8962 33.356 6.25 37.5 6.25C41.644 6.25 45.6183 7.8962 48.5485 10.8265C51.4788 13.7567 53.125 17.731 53.125 21.875V34.375" stroke="white" stroke-width="4" stroke-linecap="round" stroke-linejoin="round"/>
</svg>
